<svg id="Layer_1" data-name="Layer 1" xmlns="http://www.w3.org/2000/svg" viewBox="0 0 206 55"><defs><style>.cls-1{fill:#555;}.cls-2{fill:#da2129;}</style></defs><title>tsol-logo</title><path class="cls-1" d="M122,31a7.07,7.07,0,0,1,2.37,1.3,6.18,6.18,0,0,1,1.6,2.08,6.39,6.39,0,0,1,.59,2.8v9.12a6.69,6.69,0,0,1-.58,2.86,6,6,0,0,1-1.58,2.08,6.85,6.85,0,0,1-2.37,1.28,9.73,9.73,0,0,1-3,.43h-.42a10.39,10.39,0,0,1-3-.42,6.63,6.63,0,0,1-2.38-1.26,5.79,5.79,0,0,1-1.57-2.1,7,7,0,0,1-.56-2.88V37.23a6.3,6.3,0,0,1,.59-2.77,6.18,6.18,0,0,1,1.6-2.08,7.29,7.29,0,0,1,2.37-1.31,9,9,0,0,1,2.93-.46h.45A9.3,9.3,0,0,1,122,31Zm.59,6.21a2.81,2.81,0,0,0-1-2.32,3.86,3.86,0,0,0-2.51-.82h-.45a3.91,3.91,0,0,0-2.51.8,2.77,2.77,0,0,0-1,2.3v9.12a2.82,2.82,0,0,0,1,2.38,4.1,4.1,0,0,0,2.58.75h.42a4,4,0,0,0,2.58-.75,2.87,2.87,0,0,0,.94-2.38Z"/><path class="cls-1" d="M142,30.92h3.52V52.68h-6.27l-5.6-17.31V52.68h-3.52V30.92h5.7L142,48.55Z"/><path class="cls-1" d="M153.52,30.92V49.16h8.06v3.52h-11.9V30.92Z"/><path class="cls-1" d="M165.1,30.92h4V52.68h-4Z"/><path class="cls-1" d="M186.25,30.92h3.52V52.68H183.5l-5.6-17.31V52.68h-3.52V30.92h5.7l6.18,17.63Z"/><path class="cls-1" d="M197.77,43.34v5.82h7.42v3.52H193.93V30.92h10.72v3.52h-6.88V40h5.79v3.36Z"/><path class="cls-2" d="M29.67,35c0-12.05-13.82-12.28-13.82-18.78,0-2.88,2.22-5.4,7.92-5.4a24.28,24.28,0,0,1,7,1.26L32.78,2a54.66,54.66,0,0,0-8.72-.74C10.3,1.25,3.57,9.31,3.57,18.92c0,11.91,13.76,11.76,13.76,18.19,0,3.77-2.88,5.84-8.43,5.84a23.68,23.68,0,0,1-7.77-1.4v11a48.71,48.71,0,0,0,7.12.52c12.64,0,21.44-8.06,21.44-18"/><path class="cls-2" d="M52.8,25.71H45.49L42.85,39.77c-.63,3.34-.07,4.32,2.37,4.32a16.71,16.71,0,0,0,4-.49L48.14,52a33,33,0,0,1-7.52,1c-7.66,0-10-3.62-8.36-12.25l2.79-15H29.89l1.67-8.15h5.09l1.11-5.64L48.55,9.36,47,17.56H54.4l-1.6,8.15"/><path class="cls-2" d="M71.83,25.15c-6.48,0-9.89,8.43-9.89,14.84,0,2.65.63,3.83,2,3.83,3.9,0,9.47-9.75,10.72-16.37L75,25.57a13.11,13.11,0,0,0-3.2-.42m8.77,27H70.37a92,92,0,0,1,2.78-9H73C70,48.2,65.49,53,59.57,53c-5.51,0-8.43-3.55-8.43-11,0-13.3,7.31-25.21,22.56-25.21A70.78,70.78,0,0,1,86.94,18c-2.65,13.37-4.81,25-6.34,34.19"/><path class="cls-2" d="M108.58,27C104.26,25.5,98.41,31.83,96,44.86l-1.32,7.31H84.28l3.48-18.11c.83-4.25,2.3-12.33,2.93-16.5h10a64.54,64.54,0,0,1-2.58,8.92h.14c3.48-6.62,7-10.45,12.54-9.68L108.58,27"/><polygon class="cls-2" points="56.63 12.5 54.96 12.5 54.96 6 52.81 6 52.81 4.62 58.77 4.62 58.77 6 56.63 6 56.63 12.5"/><polygon class="cls-2" points="66.09 12.5 64.42 12.5 64.42 9.1 61.29 9.1 61.29 12.5 59.62 12.5 59.62 4.62 61.29 4.62 61.29 7.71 64.42 7.71 64.42 4.62 66.09 4.62 66.09 12.5"/><polygon class="cls-2" points="71.77 12.5 67.22 12.5 67.22 4.62 71.77 4.62 71.77 5.98 68.9 5.98 68.9 7.72 71.57 7.72 71.57 9.09 68.9 9.09 68.9 11.12 71.77 11.12 71.77 12.5"/></svg>